<svg xmlns="http://www.w3.org/2000/svg" width="26" height="27" fill="none"><path fill="#fff" d="M6.122 17.4h13.385c3.598 0 6.295-2.728 6.295-6.133 0-3.502-2.825-6.091-6.51-6.091-1.321-2.6-3.781-4.362-7.036-4.362-4.114 0-7.455 3.17-7.853 7.176-1.987.591-3.48 2.31-3.48 4.63 0 2.664 1.944 4.78 5.2 4.78Zm2.482 8.229 3.147-5.446a.69.69 0 0 0-.247-.967c-.355-.194-.752-.086-.956.28L7.4 24.951c-.193.333-.107.741.247.945a.694.694 0 0 0 .957-.268Zm-4.276 0 3.137-5.446a.679.679 0 0 0-.247-.956c-.355-.204-.741-.097-.956.268l-3.148 5.457c-.193.333-.107.741.247.945a.706.706 0 0 0 .967-.268Zm8.55 0 3.148-5.446a.679.679 0 0 0-.247-.956c-.354-.204-.752-.097-.956.268l-3.158 5.457c-.183.333-.097.741.258.945a.694.694 0 0 0 .956-.268Zm4.255.01 3.169-5.467c.193-.344.096-.763-.247-.956a.697.697 0 0 0-.956.268l-3.137 5.447c-.204.354-.107.762.236.966a.677.677 0 0 0 .935-.257Z"/></svg>