<svg xmlns="http://www.w3.org/2000/svg" width="32" height="31" fill="none"><path fill="#fff" d="M20.484 4.18a.986.986 0 0 0 .967-.978V.98A.979.979 0 0 0 20.484 0a.981.981 0 0 0-.977.978v2.223c0 .527.44.978.977.978Zm-6.38 2.073a.97.97 0 0 0 1.375 0 .963.963 0 0 0 0-1.354l-1.58-1.6a.976.976 0 0 0-1.364 0 .979.979 0 0 0 0 1.375l1.569 1.579Zm11.376.01a.98.98 0 0 0 1.375-.01l1.579-1.58a.966.966 0 0 0 0-1.363.966.966 0 0 0-1.365 0L25.48 4.9c-.375.365-.365.988 0 1.364Zm-2.138 9.572c1.547-1.042 2.514-2.686 2.514-4.587a5.36 5.36 0 0 0-5.372-5.371c-1.965 0-3.674 1.042-4.565 2.589.462.472.86.988 1.192 1.622 3.491.268 5.876 2.503 6.23 5.747ZM4.64 22.033h11.924c3.061 0 5.424-2.33 5.424-5.36 0-3.05-2.427-5.339-5.704-5.35C15.07 9.003 12.857 7.5 10.075 7.5c-3.566 0-6.574 2.75-6.896 6.338-1.859.537-3.051 2.116-3.051 4.05 0 2.46 1.837 4.146 4.512 4.146Zm23.88-9.818h2.223a.96.96 0 0 0 .967-.956.972.972 0 0 0-.967-.978H28.52a.988.988 0 0 0-.978.978c0 .526.451.956.977.956Zm-1.45 6.993a.966.966 0 0 0 1.364 0 .976.976 0 0 0-.011-1.364l-1.58-1.58a.976.976 0 0 0-1.363 0 .966.966 0 0 0 0 1.365l1.59 1.579Zm-13.847 8.046 1.385-2.396a.674.674 0 0 0-.247-.966c-.343-.204-.74-.086-.956.268l-1.385 2.417a.663.663 0 0 0 .247.945.694.694 0 0 0 .956-.268Zm-8.54.01 1.385-2.395a.69.69 0 0 0-.247-.967c-.354-.204-.752-.086-.956.269L3.47 26.588a.666.666 0 0 0 .258.945.694.694 0 0 0 .956-.268Zm11.913 3.009 1.385-2.396a.69.69 0 0 0-.247-.967c-.354-.204-.74-.086-.956.269l-1.396 2.417a.674.674 0 0 0 .258.945.694.694 0 0 0 .956-.268Zm-8.551.01 1.386-2.395a.674.674 0 0 0-.247-.967c-.344-.204-.742-.086-.956.268l-1.386 2.417a.663.663 0 0 0 .247.946.694.694 0 0 0 .956-.269Z"/></svg>