<svg xmlns="http://www.w3.org/2000/svg" width="29" height="20" fill="none"><path fill="#fff" d="M23.331 13.467c3.33-.655 5.317-3.384 5.317-5.178 0-.44-.193-.752-.547-.752-.548 0-1.343.677-2.847.677-2.6.01-4.233-1.568-4.233-3.943 0-1.46.731-2.513.731-3.104 0-.344-.236-.57-.666-.559-1.955.076-4.555 2.267-5.156 5.178.365.344.709.795.988 1.386 3.545.247 6.273 2.943 6.413 6.295ZM4.586 19.214h11.913c3.072 0 5.436-2.342 5.436-5.371 0-3.051-2.439-5.328-5.704-5.34-1.225-2.33-3.427-3.823-6.21-3.823-3.566 0-6.574 2.739-6.896 6.327-1.87.537-3.062 2.116-3.062 4.05 0 2.47 1.837 4.157 4.523 4.157Z"/></svg>