<svg xmlns="http://www.w3.org/2000/svg" width="26" height="27" fill="none"><path fill="#fff" d="M6.122 17.4h13.385c3.598 0 6.295-2.728 6.295-6.133 0-3.502-2.825-6.091-6.51-6.091-1.321-2.6-3.781-4.362-7.036-4.362-4.114 0-7.455 3.17-7.853 7.176-1.987.591-3.48 2.31-3.48 4.63 0 2.664 1.944 4.78 5.2 4.78Zm8.884 5.167 1.386-2.395a.69.69 0 0 0-.247-.967c-.355-.204-.752-.086-.957.269l-1.396 2.417a.666.666 0 0 0 .258.945.685.685 0 0 0 .956-.269Zm-8.55.011 1.385-2.395a.69.69 0 0 0-.247-.967c-.355-.204-.741-.086-.956.268L5.24 21.901a.674.674 0 0 0 .258.946.694.694 0 0 0 .956-.269Zm11.912 3.019 1.386-2.407a.676.676 0 0 0-.247-.966c-.344-.194-.741-.086-.956.279l-1.386 2.417a.663.663 0 0 0 .247.945.703.703 0 0 0 .956-.268Zm-8.54 0 1.386-2.396a.693.693 0 0 0-.247-.967c-.355-.204-.752-.086-.956.28L8.614 24.92a.678.678 0 0 0 .258.956.698.698 0 0 0 .956-.28Z"/></svg>
