<svg xmlns="http://www.w3.org/2000/svg" width="26" height="28" fill="none"><path fill="#fff" d="M6.122 17.4h13.385c3.598 0 6.295-2.728 6.295-6.133 0-3.502-2.825-6.091-6.51-6.091-1.321-2.6-3.781-4.362-7.036-4.362-4.114 0-7.455 3.17-7.853 7.176-1.987.591-3.48 2.31-3.48 4.63 0 2.664 1.944 4.78 5.2 4.78Zm9.98 3.975h-2.278l1.02-1.966c.13-.236.033-.419-.203-.419h-2.525c-.3 0-.419.108-.515.333l-1.494 3.395c-.107.268 0 .43.29.43H12.3l-1.461 3.534c-.054.14-.022.268.075.311.097.032.215.01.333-.107l5.017-4.974c.236-.236.15-.537-.161-.537Z"/></svg>